<svg xmlns="http://www.w3.org/2000/svg" width="18" height="18" viewBox="0 0 18 18" fill="none">
  <g clip-path="url(#clip0_34504_3202)">
    <path d="M0.67495 15.3002C0.585959 15.3024 0.497448 15.2865 0.414818 15.2534C0.332188 15.2203 0.257173 15.1707 0.19435 15.1076C0.130835 15.0454 0.0808001 14.9708 0.0473564 14.8884C0.0139126 14.806 -0.00222427 14.7177 -5.03604e-05 14.6288C-5.03604e-05 14.4398 0.0647496 14.2778 0.19435 14.1473C0.25653 14.0831 0.331326 14.0324 0.414036 13.9985C0.496745 13.9646 0.585579 13.9481 0.67495 13.9502H1.79995V4.0502C1.79995 3.6794 1.93225 3.3608 2.19595 3.0962C2.46055 2.8325 2.77825 2.7002 3.14995 2.7002H14.8499C15.2216 2.7002 15.5393 2.8325 15.8039 3.0962C16.0676 3.3608 16.1999 3.6794 16.1999 4.0502V13.9502H17.3249C17.5157 13.9502 17.6759 14.015 17.8055 14.1428C17.8691 14.205 17.9191 14.2796 17.9525 14.362C17.986 14.4443 18.0021 14.5327 17.9999 14.6216C17.9999 14.8106 17.9352 14.9726 17.8055 15.1031C17.7434 15.1673 17.6686 15.218 17.5859 15.2519C17.5032 15.2858 17.4143 15.3023 17.3249 15.3002H0.67495ZM7.65085 13.5002H10.3572C10.4777 13.5002 10.5812 13.4552 10.6685 13.3652C10.7106 13.3241 10.7439 13.2749 10.7665 13.2207C10.7891 13.1665 10.8006 13.1082 10.8003 13.0494C10.8 12.9907 10.7878 12.9325 10.7645 12.8786C10.7413 12.8246 10.7074 12.7758 10.665 12.7352C10.6243 12.6923 10.5753 12.6582 10.521 12.6349C10.4667 12.6117 10.4081 12.5999 10.349 12.6002H7.64275C7.58431 12.5998 7.52643 12.6116 7.47282 12.6349C7.4192 12.6581 7.37102 12.6923 7.33135 12.7352C7.28923 12.7762 7.25582 12.8254 7.23311 12.8796C7.21041 12.9339 7.19888 12.9921 7.19922 13.051C7.19955 13.1098 7.21175 13.1679 7.23507 13.2219C7.25839 13.2759 7.29236 13.3246 7.33495 13.3652C7.42495 13.4552 7.53025 13.5002 7.65085 13.5002ZM3.14995 11.7002H14.8499V4.0502H3.14995V11.7002Z" fill="#038DCE"/>
  </g>
  <defs>
    <clipPath id="clip0_34504_3202">
      <rect width="18" height="18" fill="white"/>
    </clipPath>
  </defs>
</svg>