<svg xmlns="http://www.w3.org/2000/svg" width="16" height="16" viewBox="0 0 16 16" fill="none">
  <path d="M4.11641 13.683C3.62628 13.6854 3.14298 13.5681 2.70841 13.3414C2.27521 13.1186 1.89659 12.8028 1.59961 12.4166C1.93082 12.3999 2.24469 12.2635 2.48281 12.0326C2.72761 11.8006 2.84921 11.511 2.84921 11.1662C2.84921 10.6334 3.03321 10.1862 3.40201 9.82463C3.5776 9.64861 3.78695 9.5099 4.0175 9.41683C4.24805 9.32376 4.49503 9.27825 4.74361 9.28303C5.27001 9.28303 5.71321 9.46703 6.07481 9.83263C6.43561 10.199 6.61641 10.6438 6.61641 11.1662C6.61641 11.8662 6.37481 12.4606 5.89161 12.9502C5.40761 13.4382 4.81721 13.683 4.11641 13.683ZM4.11641 12.5662C4.50121 12.5662 4.83081 12.4294 5.10521 12.155C5.37961 11.8814 5.51641 11.5518 5.51641 11.1662C5.51791 11.0654 5.49874 10.9653 5.46008 10.8722C5.42142 10.779 5.36408 10.6948 5.29161 10.6246C5.22131 10.5522 5.13691 10.495 5.04362 10.4564C4.95033 10.4179 4.85013 10.3989 4.74921 10.4006C4.64842 10.399 4.54838 10.4181 4.45523 10.4566C4.36209 10.4951 4.27782 10.5523 4.20761 10.6246C4.13528 10.6948 4.0781 10.7791 4.03957 10.8723C4.00105 10.9654 3.982 11.0654 3.98361 11.1662C3.98361 11.411 3.95481 11.647 3.89961 11.875C3.84361 12.103 3.73881 12.3054 3.58281 12.483C3.67161 12.5054 3.76041 12.5246 3.84921 12.5414C3.93881 12.5582 4.02761 12.5662 4.11641 12.5662ZM8.05001 9.73343L6.34921 8.03343L11.666 2.71663C11.7396 2.641 11.8279 2.58126 11.9254 2.54108C12.023 2.5009 12.1277 2.48115 12.2332 2.48303C12.4548 2.48303 12.6444 2.56063 12.7996 2.71663L13.366 3.28303C13.522 3.44303 13.5996 3.63103 13.5996 3.84543C13.6006 3.9489 13.5804 4.05147 13.5402 4.14682C13.5 4.24216 13.4407 4.32827 13.366 4.39983L8.05001 9.73343Z" fill="#038DCE" fill-opacity="0.8"/>
</svg>