<svg xmlns="http://www.w3.org/2000/svg" width="16" height="16" viewBox="0 0 16 16" fill="none">
  <path d="M3.29922 8L6.03282 10.7336C6.09079 10.7881 6.13699 10.8539 6.16857 10.927C6.20014 11.0001 6.21643 11.0788 6.21643 11.1584C6.21643 11.238 6.20014 11.3167 6.16857 11.3898C6.13699 11.4628 6.09079 11.5287 6.03282 11.5832C5.97777 11.6417 5.91124 11.6883 5.83739 11.7199C5.76353 11.7515 5.68394 11.7676 5.6036 11.7671C5.52325 11.7665 5.44388 11.7494 5.37045 11.7168C5.29701 11.6842 5.2311 11.6368 5.17682 11.5776L2.01602 8.4168C1.90838 8.30355 1.84875 8.15304 1.84962 7.9968C1.84962 7.9168 1.86322 7.8416 1.89122 7.772C1.91935 7.70113 1.96184 7.63685 2.01602 7.5832L5.18242 4.4168C5.2372 4.35911 5.30315 4.31318 5.37625 4.28179C5.44935 4.2504 5.52807 4.23422 5.60762 4.23422C5.68717 4.23422 5.76589 4.2504 5.83899 4.28179C5.91209 4.31318 5.97804 4.35911 6.03282 4.4168C6.09038 4.47157 6.1362 4.53747 6.16752 4.61049C6.19883 4.68352 6.21498 4.76214 6.21498 4.8416C6.21498 4.92105 6.19883 4.99968 6.16752 5.0727C6.1362 5.14573 6.09038 5.21162 6.03282 5.2664L3.29922 8ZM12.6992 8L9.96562 5.2664C9.90775 5.21181 9.86165 5.14597 9.83014 5.07292C9.79862 4.99987 9.78237 4.92115 9.78237 4.8416C9.78237 4.76204 9.79862 4.68333 9.83014 4.61028C9.86165 4.53723 9.90775 4.47139 9.96562 4.4168C10.0207 4.35827 10.0872 4.31173 10.1611 4.28009C10.2349 4.24846 10.3145 4.2324 10.3948 4.23292C10.4752 4.23345 10.5546 4.25055 10.628 4.28315C10.7014 4.31575 10.7673 4.36316 10.8216 4.4224L13.9824 7.5832C14.0901 7.69645 14.1497 7.84696 14.1488 8.0032C14.1488 8.0832 14.1352 8.1584 14.1072 8.228C14.0791 8.29887 14.0366 8.36316 13.9824 8.4168L10.816 11.5832C10.7641 11.6409 10.7001 11.6865 10.6287 11.7167C10.5572 11.747 10.48 11.7612 10.4024 11.7584C10.2426 11.752 10.0918 11.6831 9.98242 11.5664C9.92486 11.5116 9.87903 11.4457 9.84772 11.3727C9.81641 11.2997 9.80026 11.2211 9.80026 11.1416C9.80026 11.0621 9.81641 10.9835 9.84772 10.9105C9.87903 10.8375 9.92486 10.7716 9.98242 10.7168L12.6992 8Z" fill="#038DCE"/>
</svg>