<svg width="18" height="18" viewBox="0 0 18 18" fill="none" xmlns="http://www.w3.org/2000/svg">
<path d="M13.4318 2.85658C13.4126 2.81063 13.3803 2.77138 13.3389 2.74376C13.2975 2.71615 13.2489 2.70142 13.1991 2.70142C13.1493 2.70142 13.1007 2.71615 13.0593 2.74376C13.0179 2.77138 12.9856 2.81063 12.9665 2.85658L12.6038 3.74488C12.5617 3.84809 12.4994 3.94186 12.4206 4.02068C12.3417 4.0995 12.248 4.16179 12.1448 4.20388L11.2556 4.56748C11.2096 4.5866 11.1704 4.6189 11.1427 4.6603C11.1151 4.70171 11.1004 4.75036 11.1004 4.80013C11.1004 4.84989 11.1151 4.89855 11.1427 4.93995C11.1704 4.98135 11.2096 5.01365 11.2556 5.03278L12.1448 5.39548C12.248 5.43757 12.3417 5.49985 12.4206 5.57867C12.4994 5.65749 12.5617 5.75126 12.6038 5.85448L12.9665 6.74368C12.9856 6.78962 13.0179 6.82888 13.0593 6.85649C13.1007 6.8841 13.1493 6.89884 13.1991 6.89884C13.2489 6.89884 13.2975 6.8841 13.3389 6.85649C13.3803 6.82888 13.4126 6.78962 13.4318 6.74368L13.7945 5.85448C13.8366 5.75129 13.8989 5.65754 13.9777 5.57872C14.0565 5.49991 14.1503 5.43761 14.2535 5.39548L15.1427 5.03278C15.1886 5.01365 15.2278 4.98135 15.2555 4.93995C15.2831 4.89855 15.2978 4.84989 15.2978 4.80013C15.2978 4.75036 15.2831 4.70171 15.2555 4.6603C15.2278 4.6189 15.1886 4.5866 15.1427 4.56748L14.2535 4.20388C14.1503 4.16174 14.0565 4.09945 13.9777 4.02063C13.8989 3.94182 13.8366 3.84807 13.7945 3.74488L13.4318 2.85658ZM8.68785 4.36048C8.65638 4.2833 8.60263 4.21726 8.53346 4.17077C8.46429 4.12427 8.38284 4.09944 8.2995 4.09944C8.21616 4.09944 8.13471 4.12427 8.06554 4.17077C7.99637 4.21726 7.94262 4.2833 7.91115 4.36048L7.14165 6.24598C6.93086 6.76247 6.61915 7.23172 6.22477 7.62625C5.83039 8.02079 5.36126 8.33268 4.84485 8.54368L2.96025 9.31228C2.88308 9.34375 2.81703 9.3975 2.77054 9.46666C2.72405 9.53583 2.69922 9.61728 2.69922 9.70063C2.69922 9.78397 2.72405 9.86542 2.77054 9.93459C2.81703 10.0038 2.88308 10.0575 2.96025 10.089L4.84485 10.8585C5.36118 11.0694 5.83025 11.3811 6.22463 11.7755C6.61901 12.1699 6.93076 12.639 7.14165 13.1553L7.91115 15.0399C7.94262 15.117 7.99637 15.1831 8.06554 15.2296C8.13471 15.2761 8.21616 15.3009 8.2995 15.3009C8.38284 15.3009 8.46429 15.2761 8.53346 15.2296C8.60263 15.1831 8.65638 15.117 8.68785 15.0399L9.45645 13.1553C9.66744 12.6389 9.97933 12.1697 10.3739 11.7754C10.7684 11.381 11.2377 11.0693 11.7542 10.8585L13.6388 10.089C13.7159 10.0575 13.782 10.0038 13.8285 9.93459C13.875 9.86542 13.8998 9.78397 13.8998 9.70063C13.8998 9.61728 13.875 9.53583 13.8285 9.46666C13.782 9.3975 13.7159 9.34375 13.6388 9.31228L11.7542 8.54368C11.2376 8.33278 10.7683 8.02094 10.3737 7.62639C9.97919 7.23185 9.66734 6.76255 9.45645 6.24598L8.68785 4.36138V4.36048Z" fill="black"/>
</svg>
