<svg width="18" height="18" viewBox="0 0 18 18" fill="none" xmlns="http://www.w3.org/2000/svg">
<path d="M3.15093 15.2999C2.77923 15.2999 2.46153 15.1676 2.19693 14.9039C2.06926 14.7804 1.96826 14.632 1.90015 14.4679C1.83204 14.3039 1.79827 14.1276 1.80093 13.9499V5.84994C1.80093 5.47914 1.93323 5.16054 2.19693 4.89594C2.46153 4.63224 2.77923 4.49994 3.15093 4.49994H6.30093V3.14634C6.30093 2.77374 6.43323 2.45604 6.69783 2.19414C6.82174 2.06709 6.97024 1.96662 7.13425 1.89885C7.29827 1.83108 7.47438 1.79742 7.65183 1.79994H10.3554C10.7271 1.79994 11.0448 1.93224 11.3067 2.19594C11.5695 2.46054 11.7009 2.77824 11.7009 3.14994V4.49994H14.8509C15.2226 4.49994 15.5403 4.63224 15.8049 4.89594C16.0686 5.16054 16.2009 5.47824 16.2009 5.84994V13.9499C16.2009 14.3207 16.0686 14.6393 15.8049 14.9039C15.5403 15.1676 15.2226 15.2999 14.8509 15.2999H3.15093ZM3.15093 13.9499H14.8509V5.84994H3.15093V13.9499ZM7.65093 4.49994H10.3509V3.14994H7.65093V4.49994Z" fill="black"/>
</svg>
