<svg width="18" height="18" viewBox="0 0 18 18" fill="none" xmlns="http://www.w3.org/2000/svg">
<path d="M3.71284 8.99994L6.78814 12.0752C6.85336 12.1366 6.90533 12.2106 6.94086 12.2928C6.97638 12.375 6.99471 12.4636 6.99471 12.5531C6.99471 12.6427 6.97638 12.7313 6.94086 12.8135C6.90533 12.8956 6.85336 12.9697 6.78814 13.031C6.72621 13.0969 6.65137 13.1492 6.56828 13.1848C6.48519 13.2204 6.39566 13.2385 6.30527 13.2379C6.21488 13.2373 6.12559 13.2181 6.04297 13.1814C5.96036 13.1447 5.8862 13.0914 5.82514 13.0247L2.26924 9.46884C2.14815 9.34143 2.08107 9.1721 2.08204 8.99634C2.08204 8.90634 2.09734 8.82174 2.12884 8.74344C2.16049 8.66371 2.20829 8.5914 2.26924 8.53104L5.83144 4.96884C5.89307 4.90394 5.96726 4.85227 6.0495 4.81695C6.13173 4.78164 6.2203 4.76343 6.30979 4.76343C6.39929 4.76343 6.48785 4.78164 6.57009 4.81695C6.65232 4.85227 6.72651 4.90394 6.78814 4.96884C6.8529 5.03046 6.90445 5.10459 6.93968 5.18674C6.97491 5.2689 6.99307 5.35735 6.99307 5.44674C6.99307 5.53612 6.97491 5.62458 6.93968 5.70673C6.90445 5.78888 6.8529 5.86302 6.78814 5.92464L3.71284 8.99994ZM14.2878 8.99994L11.2125 5.92464C11.1474 5.86322 11.0956 5.78915 11.0601 5.70697C11.0247 5.62479 11.0064 5.53624 11.0064 5.44674C11.0064 5.35724 11.0247 5.26868 11.0601 5.1865C11.0956 5.10432 11.1474 5.03025 11.2125 4.96884C11.2745 4.90299 11.3493 4.85064 11.4324 4.81505C11.5155 4.77945 11.605 4.76139 11.6954 4.76198C11.7858 4.76257 11.8751 4.7818 11.9577 4.81848C12.0403 4.85516 12.1145 4.90849 12.1755 4.97514L15.7314 8.53104C15.8525 8.65844 15.9196 8.82777 15.9186 9.00354C15.9186 9.09354 15.9033 9.17814 15.8718 9.25644C15.8402 9.33617 15.7924 9.40849 15.7314 9.46884L12.1692 13.031C12.1108 13.0959 12.0389 13.1472 11.9585 13.1813C11.8781 13.2153 11.7912 13.2313 11.7039 13.2281C11.5242 13.221 11.3545 13.1434 11.2314 13.0121C11.1667 12.9505 11.1151 12.8764 11.0799 12.7942C11.0447 12.7121 11.0265 12.6236 11.0265 12.5342C11.0265 12.4448 11.0447 12.3564 11.0799 12.2742C11.1151 12.1921 11.1667 12.118 11.2314 12.0563L14.2878 8.99994Z" fill="black"/>
</svg>
