<svg width="18" height="18" viewBox="0 0 18 18" fill="none" xmlns="http://www.w3.org/2000/svg">
<path d="M4.05076 15.2999C3.47566 15.2999 3.06346 15.047 2.81326 14.5403C2.56306 14.0345 2.61976 13.5611 2.98156 13.121L6.75076 8.54988V4.04988H6.08026C5.99102 4.05194 5.90229 4.03594 5.81939 4.00284C5.7365 3.96974 5.66114 3.92023 5.59786 3.85728C5.53359 3.79551 5.48288 3.72104 5.44895 3.63861C5.41502 3.55618 5.39861 3.4676 5.40076 3.37848C5.40076 3.18948 5.46556 3.02748 5.59516 2.89698C5.65734 2.83275 5.73214 2.78209 5.81485 2.74817C5.89756 2.71425 5.98639 2.69781 6.07576 2.69988H11.9258C12.1175 2.69988 12.2768 2.76378 12.4073 2.89248C12.4706 2.95476 12.5205 3.02941 12.5538 3.11177C12.5871 3.19414 12.6031 3.28247 12.6008 3.37128C12.6008 3.56028 12.536 3.72228 12.4073 3.85278C12.345 3.91712 12.27 3.96785 12.1872 4.00178C12.1043 4.0357 12.0153 4.05208 11.9258 4.04988H11.2508V8.54988L15.02 13.1246C15.3701 13.562 15.4196 14.0336 15.1694 14.5403C14.9201 15.047 14.5133 15.2999 13.9508 15.2999H4.05076ZM4.05076 13.9499H13.9508L9.90076 8.99988V4.04988H8.10076V8.99988L4.05076 13.9499Z" fill="#EEF7FD"/>
</svg>
