<svg width="18" height="18" viewBox="0 0 18 18" fill="none" xmlns="http://www.w3.org/2000/svg">
<g clip-path="url(#clip0_34504_2912)">
<path d="M0.67495 15.3C0.585959 15.3022 0.497448 15.2863 0.414818 15.2531C0.332188 15.22 0.257173 15.1704 0.19435 15.1074C0.130835 15.0451 0.0808001 14.9705 0.0473564 14.8882C0.0139126 14.8058 -0.00222427 14.7174 -5.03604e-05 14.6286C-5.03604e-05 14.4396 0.0647496 14.2776 0.19435 14.1471C0.25653 14.0828 0.331326 14.0322 0.414036 13.9982C0.496745 13.9643 0.585579 13.9479 0.67495 13.95H1.79995V4.04995C1.79995 3.67915 1.93225 3.36055 2.19595 3.09595C2.46055 2.83225 2.77825 2.69995 3.14995 2.69995H14.8499C15.2216 2.69995 15.5393 2.83225 15.8039 3.09595C16.0676 3.36055 16.1999 3.67915 16.1999 4.04995V13.95H17.3249C17.5157 13.95 17.6759 14.0148 17.8055 14.1426C17.8691 14.2048 17.9191 14.2794 17.9525 14.3617C17.986 14.4441 18.0021 14.5325 17.9999 14.6214C17.9999 14.8104 17.9352 14.9724 17.8055 15.1029C17.7434 15.1671 17.6686 15.2177 17.5859 15.2517C17.5032 15.2856 17.4143 15.302 17.3249 15.3H0.67495ZM7.65085 13.5H10.3572C10.4777 13.5 10.5812 13.455 10.6685 13.365C10.7106 13.3238 10.7439 13.2747 10.7665 13.2205C10.7891 13.1662 10.8006 13.108 10.8003 13.0492C10.8 12.9904 10.7878 12.9323 10.7645 12.8783C10.7413 12.8243 10.7074 12.7756 10.665 12.735C10.6243 12.692 10.5753 12.6579 10.521 12.6347C10.4667 12.6115 10.4081 12.5997 10.349 12.6H7.64275C7.58431 12.5996 7.52643 12.6114 7.47282 12.6346C7.4192 12.6579 7.37102 12.692 7.33135 12.735C7.28923 12.776 7.25582 12.8251 7.23311 12.8794C7.21041 12.9336 7.19888 12.9919 7.19922 13.0507C7.19955 13.1095 7.21175 13.1677 7.23507 13.2217C7.25839 13.2757 7.29236 13.3244 7.33495 13.365C7.42495 13.455 7.53025 13.5 7.65085 13.5ZM3.14995 11.7H14.8499V4.04995H3.14995V11.7Z" fill="black"/>
</g>
<defs>
<clipPath id="clip0_34504_2912">
<rect width="18" height="18" fill="white"/>
</clipPath>
</defs>
</svg>
