<svg width="18" height="18" viewBox="0 0 18 18" fill="none" xmlns="http://www.w3.org/2000/svg">
<path d="M2.28867 13.8186C2.15669 13.6939 2.0791 13.5222 2.07267 13.3407C2.06945 13.2516 2.08538 13.1628 2.11938 13.0804C2.15338 12.998 2.20466 12.9238 2.26977 12.8628L6.11277 9.01893C6.23684 8.89134 6.38575 8.79054 6.55029 8.72274C6.71484 8.65494 6.89153 8.62158 7.06947 8.62473C7.44477 8.62473 7.76247 8.75613 8.02617 9.01893L9.91977 10.9125L13.8942 6.95613H12.3759C12.2869 6.95836 12.1984 6.94243 12.1157 6.90932C12.0331 6.8762 11.9581 6.8266 11.8953 6.76353C11.8319 6.70143 11.7819 6.62697 11.7485 6.54476C11.715 6.46256 11.6988 6.37436 11.7009 6.28563C11.7009 6.09483 11.7657 5.93463 11.8953 5.80323C11.9575 5.739 12.0322 5.68834 12.115 5.65442C12.1977 5.6205 12.2865 5.60406 12.3759 5.60613H15.5259C15.7167 5.60613 15.8769 5.67093 16.0065 5.80053C16.07 5.86314 16.1199 5.93807 16.1534 6.02073C16.1868 6.10338 16.203 6.192 16.2009 6.28113V9.43113C16.2009 9.62283 16.1361 9.78213 16.0074 9.91263C15.9453 9.9758 15.871 10.0256 15.7889 10.0589C15.7069 10.0921 15.6189 10.1082 15.5304 10.1061C15.4414 10.1082 15.353 10.0926 15.2702 10.0601C15.1874 10.0277 15.1118 9.97906 15.048 9.91713C14.984 9.85756 14.9333 9.78517 14.8992 9.70469C14.8651 9.62421 14.8483 9.53743 14.85 9.45003V7.91283L10.8756 11.8872C10.7516 12.0148 10.6029 12.1155 10.4385 12.1833C10.2741 12.2511 10.0976 12.2845 9.91977 12.2814C9.54447 12.2814 9.22587 12.15 8.96307 11.8872L7.06947 9.97473L3.24447 13.8186C3.18313 13.8839 3.10908 13.9358 3.02689 13.9713C2.9447 14.0069 2.85611 14.0252 2.76657 14.0252C2.67703 14.0252 2.58844 14.0069 2.50626 13.9713C2.42407 13.9358 2.35002 13.8839 2.28867 13.8186Z" fill="black"/>
</svg>
