<svg xmlns="http://www.w3.org/2000/svg" width="14" height="13" viewBox="0 0 14 13" fill="none">
  <path d="M5.9787 0.510024C6.19965 -0.169982 7.16168 -0.169983 7.38262 0.510022L8.4538 3.80676C8.55261 4.11086 8.836 4.31676 9.15576 4.31676H12.6221C13.3371 4.31676 13.6344 5.2317 13.056 5.65197L10.2516 7.68946C9.99293 7.87741 9.88468 8.21056 9.98349 8.51467L11.0547 11.8114C11.2756 12.4914 10.4973 13.0569 9.91887 12.6366L7.1145 10.5991C6.85581 10.4112 6.50552 10.4112 6.24683 10.5991L3.44246 12.6366C2.86401 13.0569 2.08572 12.4914 2.30666 11.8114L3.37784 8.51467C3.47665 8.21056 3.3684 7.87741 3.10971 7.68946L0.305344 5.65197C-0.273104 5.2317 0.0241783 4.31676 0.739179 4.31676H4.20557C4.52533 4.31676 4.80872 4.11086 4.90753 3.80676L5.9787 0.510024Z" fill="#FDAA09"/>
</svg>