<svg width="54" height="54" viewBox="0 0 54 54" fill="none" xmlns="http://www.w3.org/2000/svg">
<path d="M6.48392 34.9576H4.45982L2.56509 44.4045C2.32339 45.6072 3.67727 46.3885 5.472 46.3885C7.26674 46.3885 8.62025 45.6081 8.37959 44.4045L6.48392 34.9576Z" fill="#CAD51E"/>
<path d="M6.96128 32.4973C6.96128 33.3181 6.29706 33.9877 5.47087 33.9877C4.65006 33.9877 3.98047 33.3181 3.98047 32.4973C3.98047 31.6711 4.65006 31.0015 5.47087 31.0015C6.29706 31.0015 6.96128 31.6711 6.96128 32.4973Z" fill="#CAD51E"/>
<path d="M52.1811 16.3808L27.7038 7.74534C27.1987 7.56674 26.802 7.56674 26.2972 7.74534L1.81806 16.3808C1.50746 16.4902 1.34961 16.7136 1.34961 17.0428V19.3818C1.34961 19.7114 1.50746 19.9353 1.81806 20.0446L26.9996 28.9285L52.1812 20.0446C52.4918 19.9344 52.6496 19.7119 52.6496 19.3821V17.0431C52.6496 16.7136 52.4917 16.4902 52.1811 16.3808Z" fill="#CAD51E"/>
<path d="M27.0004 31.0379L26.3388 30.8041L11.3083 25.5013V30.8491C11.3083 39.1691 16.6003 42.9185 27.0003 42.9185C37.3998 42.9185 42.6913 39.1691 42.6913 30.8491V25.5013L27.6618 30.8041L27.0004 31.0379Z" fill="#CAD51E"/>
<path d="M6.46855 23.7936L4.47852 23.0919V30.1893H6.46855V23.7936Z" fill="#CAD51E"/>
</svg>
