<svg xmlns="http://www.w3.org/2000/svg" width="16" height="16" viewBox="0 0 16 16" fill="none">
  <path d="M4.11641 13.6833C3.62628 13.6856 3.14298 13.5683 2.70841 13.3417C2.27521 13.1188 1.89659 12.803 1.59961 12.4169C1.93082 12.4002 2.24469 12.2637 2.48281 12.0329C2.72761 11.8009 2.84921 11.5113 2.84921 11.1665C2.84921 10.6337 3.03321 10.1865 3.40201 9.82488C3.5776 9.64886 3.78695 9.51014 4.0175 9.41707C4.24805 9.324 4.49503 9.27849 4.74361 9.28328C5.27001 9.28328 5.71321 9.46728 6.07481 9.83288C6.43561 10.1993 6.61641 10.6441 6.61641 11.1665C6.61641 11.8665 6.37481 12.4609 5.89161 12.9505C5.40761 13.4385 4.81721 13.6833 4.11641 13.6833ZM4.11641 12.5665C4.50121 12.5665 4.83081 12.4297 5.10521 12.1553C5.37961 11.8817 5.51641 11.5521 5.51641 11.1665C5.51791 11.0656 5.49874 10.9656 5.46008 10.8724C5.42142 10.7793 5.36408 10.695 5.29161 10.6249C5.22131 10.5525 5.13691 10.4952 5.04362 10.4567C4.95033 10.4182 4.85013 10.3992 4.74921 10.4009C4.64842 10.3993 4.54838 10.4183 4.45523 10.4568C4.36209 10.4954 4.27782 10.5526 4.20761 10.6249C4.13528 10.6951 4.0781 10.7794 4.03957 10.8725C4.00105 10.9656 3.982 11.0657 3.98361 11.1665C3.98361 11.4113 3.95481 11.6473 3.89961 11.8753C3.84361 12.1033 3.73881 12.3057 3.58281 12.4833C3.67161 12.5057 3.76041 12.5249 3.84921 12.5417C3.93881 12.5585 4.02761 12.5665 4.11641 12.5665ZM8.05001 9.73368L6.34921 8.03368L11.666 2.71688C11.7396 2.64125 11.8279 2.5815 11.9254 2.54132C12.023 2.50115 12.1277 2.48139 12.2332 2.48328C12.4548 2.48328 12.6444 2.56088 12.7996 2.71688L13.366 3.28328C13.522 3.44328 13.5996 3.63128 13.5996 3.84568C13.6006 3.94914 13.5804 4.05171 13.5402 4.14706C13.5 4.24241 13.4407 4.32852 13.366 4.40008L8.05001 9.73368Z" fill="#6B8294"/>
</svg>