<svg width="24" height="24" viewBox="0 0 24 24" fill="none" xmlns="http://www.w3.org/2000/svg">
<g clip-path="url(#clip0_34504_3329)">
<path d="M12.8557 15.2441L10.1047 12.5256L10.1372 12.4931C12.0218 10.392 13.3647 7.97676 14.1554 5.42071H17.3288V3.24918H9.74733V1.08304H7.58118V3.24918H-0.000244141V5.40446H12.0976C11.3665 7.49476 10.2238 9.47676 8.66423 11.2097C7.65698 10.0887 6.82301 8.87028 6.16235 7.58142H3.99626C4.78688 9.3468 5.86998 11.0147 7.22377 12.5202L1.71639 17.9626L3.24895 19.4951L8.66428 14.0798L12.0326 17.4481L12.8557 15.2441Z" fill="white"/>
<path d="M18.9537 9.74756H16.7876L11.9138 22.7443H14.08L15.2984 19.4951H20.4429L21.6614 22.7443H23.8275L18.9537 9.74756ZM16.1107 17.329L17.8707 12.6339L19.6307 17.329H16.1107Z" fill="white"/>
</g>
<defs>
<clipPath id="clip0_34504_3329">
<rect width="23.8274" height="23.8274" fill="white"/>
</clipPath>
</defs>
</svg>
