<svg width="18" height="18" viewBox="0 0 18 18" fill="none" xmlns="http://www.w3.org/2000/svg">
<path d="M15 9C15 5.68629 12.3137 3 9 3C5.68629 3 3 5.68629 3 9C3 12.3137 5.68629 15 9 15C10.2313 15 11.3761 14.6291 12.3286 13.9928L13.1607 15.241C11.9701 16.0364 10.5392 16.5 9 16.5C4.85786 16.5 1.5 13.1421 1.5 9C1.5 4.85786 4.85786 1.5 9 1.5C13.1421 1.5 16.5 4.85786 16.5 9V10.125C16.5 11.5747 15.3247 12.75 13.875 12.75C12.9719 12.75 12.1752 12.2938 11.7029 11.5994C11.0206 12.3086 10.0618 12.75 9 12.75C6.92894 12.75 5.25 11.071 5.25 9C5.25 6.92894 6.92894 5.25 9 5.25C9.84435 5.25 10.6235 5.52907 11.2504 6H12.75V10.125C12.75 10.7463 13.2537 11.25 13.875 11.25C14.4963 11.25 15 10.7463 15 10.125V9ZM9 6.75C7.75733 6.75 6.75 7.75733 6.75 9C6.75 10.2427 7.75733 11.25 9 11.25C10.2427 11.25 11.25 10.2427 11.25 9C11.25 7.75733 10.2427 6.75 9 6.75Z" fill="#038DCE"/>
</svg>
