<svg xmlns="http://www.w3.org/2000/svg" width="28" height="28" viewBox="0 0 28 28" fill="none">
  <g clip-path="url(#clip0_34504_3258)">
    <path d="M3.5 0.875C2.77513 0.875 2.1875 1.46263 2.1875 2.1875V18.375H1.3125C1.07088 18.375 0.875 18.5709 0.875 18.8125C0.875 19.0541 1.07088 19.25 1.3125 19.25H3.9375H3.93914H4.8125C4.8125 17.2396 6.04524 15.5171 7.79607 14.7972C6.79359 14.1816 6.125 13.0751 6.125 11.8125C6.125 9.87949 7.69199 8.3125 9.625 8.3125C11.558 8.3125 13.125 9.87949 13.125 11.8125C13.125 13.0752 12.4563 14.1818 11.4537 14.7973C12.1061 15.0656 12.6862 15.4729 13.1572 15.9816L15.6781 14.9497C16.1465 14.7579 16.6402 14.7249 17.0993 14.8248L20.7204 8.12591C21.0651 7.48821 21.8614 7.25069 22.4991 7.59539C23.1367 7.94006 23.3743 8.73644 23.0296 9.37414L18.9769 16.8716C19.098 17.8156 18.6463 18.7595 17.8113 19.25H26.6875C26.9291 19.25 27.125 19.0541 27.125 18.8125C27.125 18.5709 26.9291 18.375 26.6875 18.375H25.8125V2.1875C25.8125 1.46262 25.2249 0.875 24.5 0.875H3.5Z" fill="white"/>
    <path d="M22.083 8.36521C22.2956 8.4801 22.3748 8.74557 22.2599 8.95811L18.056 16.7352C18.2818 17.4821 17.9065 18.2922 17.1697 18.5938L13.5625 20.0703V26.6876C13.5625 26.9292 13.3666 27.1251 13.125 27.1251H6.125C5.88337 27.1251 5.6875 26.9292 5.6875 26.6876V19.2501C5.6875 17.0754 7.45036 15.3126 9.625 15.3126C10.9806 15.3126 12.1756 15.9977 12.8835 17.0391L16.0095 15.7595C16.5194 15.5508 17.0767 15.6371 17.4917 15.9391L21.4901 8.54205C21.605 8.32947 21.8705 8.25032 22.083 8.36521Z" fill="white"/>
    <path d="M9.625 9.1875C8.17526 9.1875 7 10.3628 7 11.8125C7 13.2622 8.17526 14.4375 9.625 14.4375C11.0747 14.4375 12.25 13.2622 12.25 11.8125C12.25 10.3628 11.0747 9.1875 9.625 9.1875Z" fill="white"/>
  </g>
  <defs>
    <clipPath id="clip0_34504_3258">
      <rect width="28" height="28" fill="white"/>
    </clipPath>
  </defs>
</svg>