<svg width="28" height="28" viewBox="0 0 28 28" fill="none" xmlns="http://www.w3.org/2000/svg">
<path d="M10.444 20.8203C9.94802 20.6597 9.49301 20.393 9.11068 20.0386C8.72835 19.6842 8.42789 19.2508 8.23025 18.7684C8.1591 18.6015 8.04278 18.4578 7.89437 18.3534C7.74596 18.2491 7.57137 18.1882 7.39025 18.1778C6.86768 18.1418 6.35892 17.9941 5.89837 17.7446L3.05462 25.2259C3.02451 25.304 3.01748 25.3892 3.03437 25.4712C3.05125 25.5532 3.09134 25.6287 3.14987 25.6886C3.20839 25.7485 3.28289 25.7904 3.36451 25.8091C3.44612 25.8279 3.53141 25.8229 3.61025 25.7946L7.05337 24.5565L8.80337 27.7721C8.84177 27.8406 8.89762 27.8978 8.96523 27.9377C9.03285 27.9777 9.10983 27.999 9.18837 27.9996H9.219C9.30196 27.994 9.38155 27.9646 9.44826 27.9149C9.51497 27.8653 9.566 27.7975 9.59525 27.7196L12.1721 20.9471C11.9743 20.9822 11.7737 20.9997 11.5727 20.9996C11.1894 20.9992 10.8086 20.9386 10.444 20.8203Z" fill="black"/>
<path d="M24.9476 25.2259L22.1038 17.7446C21.6448 17.9941 21.1375 18.1418 20.6163 18.1778C20.4345 18.1875 20.259 18.2481 20.1098 18.3524C19.9605 18.4568 19.8435 18.6009 19.772 18.7684C19.5743 19.2508 19.2738 19.6842 18.8915 20.0386C18.5092 20.393 18.0542 20.6597 17.5582 20.8203C17.1936 20.9386 16.8128 20.9992 16.4295 20.9996C16.2285 20.9997 16.0279 20.9822 15.8301 20.9471L18.407 27.7196C18.4362 27.7975 18.4872 27.8653 18.5539 27.9149C18.6207 27.9646 18.7002 27.994 18.7832 27.9996H18.8138C18.8924 27.999 18.9693 27.9777 19.037 27.9377C19.1046 27.8978 19.1604 27.8406 19.1988 27.7721L20.9488 24.5565L24.392 25.7946C24.4708 25.8229 24.5561 25.8279 24.6377 25.8091C24.7193 25.7904 24.7938 25.7485 24.8523 25.6886C24.9109 25.6287 24.9509 25.5532 24.9678 25.4712C24.9847 25.3892 24.9777 25.304 24.9476 25.2259Z" fill="black"/>
<path d="M14 3.9375C12.7886 3.9375 11.6044 4.29673 10.5971 4.96975C9.58988 5.64277 8.80483 6.59937 8.34124 7.71856C7.87765 8.83776 7.75636 10.0693 7.99269 11.2574C8.22903 12.4456 8.81238 13.5369 9.66897 14.3935C10.5256 15.2501 11.6169 15.8335 12.8051 16.0698C13.9932 16.3061 15.2247 16.1849 16.3439 15.7213C17.4631 15.2577 18.4197 14.4726 19.0928 13.4654C19.7658 12.4581 20.125 11.2739 20.125 10.0625C20.1232 8.43861 19.4773 6.88176 18.329 5.73349C17.1807 4.58523 15.6239 3.93933 14 3.9375ZM17.7222 9.35813L16.1781 10.8627L16.5425 12.9872C16.5563 13.0676 16.5473 13.1502 16.5165 13.2258C16.4858 13.3014 16.4345 13.3668 16.3686 13.4148C16.3026 13.4627 16.2245 13.4913 16.1432 13.4973C16.0618 13.5032 15.9804 13.4863 15.9082 13.4484L14 12.4455L12.0919 13.4484C12.0197 13.4863 11.9383 13.5032 11.8569 13.4973C11.7756 13.4914 11.6975 13.4628 11.6315 13.4148C11.5656 13.3669 11.5143 13.3014 11.4836 13.2258C11.4528 13.1503 11.4438 13.0676 11.4576 12.9872L11.822 10.8627L10.2778 9.35813C10.2193 9.30113 10.178 9.22891 10.1584 9.14962C10.1388 9.07032 10.1418 8.98714 10.1671 8.90947C10.1923 8.8318 10.2388 8.76275 10.3013 8.71013C10.3637 8.65752 10.4397 8.62344 10.5205 8.61175L12.6538 8.30178L13.6078 6.36891C13.648 6.30068 13.7054 6.24414 13.7742 6.20486C13.843 6.16558 13.9208 6.14492 14 6.14492C14.0792 6.14492 14.1571 6.16558 14.2258 6.20486C14.2946 6.24414 14.352 6.30068 14.3922 6.36891L15.3462 8.30178L17.4795 8.61175C17.5603 8.62344 17.6363 8.65752 17.6987 8.71013C17.7612 8.76275 17.8077 8.8318 17.8329 8.90947C17.8582 8.98714 17.8612 9.07032 17.8416 9.14962C17.822 9.22891 17.7807 9.30113 17.7222 9.35813Z" fill="black"/>
<path d="M14.6652 8.89478L14.0017 7.55078L13.3382 8.89478C13.3069 8.95844 13.2605 9.01351 13.2031 9.05523C13.1457 9.09696 13.079 9.12409 13.0088 9.13427L11.5254 9.34983L12.5991 10.3962C12.6498 10.4457 12.6877 10.5068 12.7096 10.5743C12.7315 10.6418 12.7367 10.7135 12.7247 10.7834L12.4714 12.2609L13.7984 11.5634C13.8611 11.5304 13.9309 11.5131 14.0018 11.5131C14.0727 11.5131 14.1425 11.5304 14.2053 11.5634L15.5323 12.2609L15.2789 10.7834C15.2669 10.7135 15.2721 10.6418 15.294 10.5743C15.3159 10.5068 15.3538 10.4457 15.4046 10.3962L16.478 9.34983L14.9949 9.13427C14.9246 9.12412 14.8579 9.09701 14.8004 9.05528C14.743 9.01355 14.6966 8.95847 14.6652 8.89478Z" fill="black"/>
<path d="M17.2877 19.9885C17.6626 19.8675 18.0066 19.6663 18.2958 19.3988C18.585 19.1312 18.8124 18.8039 18.9621 18.4395C19.0959 18.1205 19.316 17.8452 19.5977 17.6444C19.8793 17.4437 20.2114 17.3254 20.5565 17.3029C20.9562 17.277 21.3453 17.1633 21.6961 16.9699C22.0468 16.7766 22.3507 16.5083 22.586 16.1842C22.8164 15.8675 22.9741 15.5039 23.0479 15.1193C23.1216 14.7346 23.1097 14.3385 23.0128 13.959C22.9309 13.6272 22.9447 13.279 23.0525 12.9547C23.1603 12.6304 23.3578 12.3433 23.6221 12.1266C23.9279 11.8759 24.1743 11.5603 24.3433 11.2027C24.5123 10.8451 24.5997 10.4544 24.5992 10.0589C24.5987 9.66337 24.5103 9.27291 24.3404 8.91573C24.1705 8.55856 23.9234 8.2436 23.6169 7.99363C23.3536 7.77608 23.1573 7.48845 23.0507 7.16401C22.944 6.83957 22.9314 6.49156 23.0142 6.16024C23.1103 5.78144 23.1218 5.38612 23.0478 5.00238C22.9738 4.61865 22.8162 4.25593 22.5861 3.94002C22.3502 3.61551 22.0457 3.347 21.6942 3.15364C21.3427 2.96027 20.9528 2.84679 20.5525 2.82128C20.208 2.7981 19.8768 2.67955 19.5959 2.47889C19.315 2.27823 19.0954 2.00337 18.9618 1.68505C18.8122 1.32066 18.5849 0.993293 18.2958 0.725794C18.0066 0.458294 17.6626 0.257104 17.2877 0.136259C16.9074 0.011919 16.5046 -0.0279916 16.1073 0.0193091C15.71 0.0666098 15.3278 0.199984 14.9874 0.410134C14.6905 0.5915 14.3494 0.687462 14.0015 0.687462C13.6536 0.687462 13.3125 0.5915 13.0157 0.410134C12.6752 0.199975 12.293 0.0665966 11.8957 0.0192957C11.4985 -0.0280051 11.0956 0.0119101 10.7154 0.136259C10.3406 0.257203 9.99669 0.458431 9.70766 0.725915C9.41863 0.993399 9.19141 1.3207 9.04184 1.68501C8.90782 2.00392 8.6876 2.27918 8.4059 2.47994C8.12419 2.68071 7.79212 2.79902 7.44694 2.82163C7.04724 2.84754 6.65817 2.96122 6.30741 3.15458C5.95664 3.34794 5.6528 3.61623 5.41751 3.94037C5.1871 4.25704 5.02938 4.62065 4.9556 5.00526C4.88183 5.38988 4.8938 5.78603 4.99068 6.16549C5.07256 6.49729 5.05879 6.8455 4.95097 7.16981C4.84315 7.49411 4.64567 7.78124 4.38142 7.99796C4.07553 8.24869 3.82919 8.56426 3.6602 8.92186C3.49121 9.27945 3.4038 9.67013 3.4043 10.0656C3.40479 10.4612 3.49318 10.8516 3.66306 11.2088C3.83294 11.566 4.08007 11.8809 4.38658 12.1309C4.64985 12.3484 4.84616 12.6361 4.95281 12.9605C5.05946 13.285 5.07209 13.633 4.98924 13.9643C4.89314 14.3431 4.88168 14.7384 4.95567 15.1221C5.02966 15.5059 5.18728 15.8686 5.41733 16.1845C5.65323 16.509 5.95778 16.7775 6.30929 16.9709C6.6608 17.1642 7.05063 17.2777 7.45101 17.3032C7.79545 17.3264 8.12666 17.445 8.40757 17.6456C8.68849 17.8463 8.90804 18.1212 9.04167 18.4395C9.19125 18.8038 9.41853 19.1312 9.70765 19.3987C9.99676 19.6662 10.3408 19.8674 10.7156 19.9882C11.0959 20.1126 11.4987 20.1525 11.896 20.1052C12.2933 20.0579 12.6755 19.9245 13.0159 19.7143C13.3127 19.5331 13.6538 19.4372 14.0016 19.4372C14.3493 19.4372 14.6904 19.5331 14.9872 19.7143L14.9876 19.7146C15.3281 19.9246 15.7102 20.0579 16.1074 20.1052C16.5045 20.1525 16.9074 20.1127 17.2877 19.9885ZM14.0017 17.0623C12.6173 17.0623 11.2639 16.6517 10.1127 15.8825C8.9616 15.1134 8.06439 14.0201 7.53458 12.741C7.00477 11.462 6.86614 10.0545 7.13624 8.69663C7.40634 7.33876 8.07302 6.09148 9.05199 5.11251C10.031 4.13354 11.2782 3.46686 12.6361 3.19676C13.994 2.92667 15.4014 3.06529 16.6805 3.5951C17.9596 4.12492 19.0529 5.02212 19.822 6.17327C20.5912 7.32441 21.0017 8.67779 21.0017 10.0623C20.9996 11.9181 20.2614 13.6974 18.9491 15.0097C17.6368 16.322 15.8576 17.0601 14.0017 17.0623Z" fill="black"/>
</svg>
