<svg xmlns="http://www.w3.org/2000/svg" width="28" height="28" viewBox="0 0 28 28" fill="none">
  <g clip-path="url(#clip0_34504_3250)">
    <path fill-rule="evenodd" clip-rule="evenodd" d="M6.35131 21.6492C9.6499 21.6492 12.3612 24.1641 12.6724 27.3811C12.6883 27.5453 12.6393 27.6927 12.5284 27.8149C12.4174 27.9371 12.2754 28 12.1103 28H0.592281C0.427234 28 0.285211 27.9371 0.17425 27.8149C0.0633983 27.6927 0.0143983 27.5454 0.0302577 27.3811C0.341375 24.1641 3.05262 21.6492 6.35131 21.6492ZM6.35137 14.6627C8.12472 14.6627 9.56229 16.1004 9.56229 17.8737C9.56229 19.6471 8.12466 21.0846 6.35137 21.0846C4.57802 21.0846 3.14039 19.647 3.14039 17.8737C3.14039 16.1004 4.57802 14.6627 6.35137 14.6627ZM21.6497 21.6492C24.9483 21.6492 27.6596 24.1641 27.9708 27.3811C27.9867 27.5453 27.9376 27.6927 27.8268 27.8149C27.7158 27.9371 27.5738 28 27.4087 28H15.8906C15.7256 28 15.5835 27.9371 15.4726 27.8149C15.3617 27.6927 15.3127 27.5454 15.3286 27.3811C15.6398 24.1641 18.351 21.6492 21.6497 21.6492ZM21.6497 14.6627C23.4231 14.6627 24.8606 16.1004 24.8606 17.8737C24.8606 19.6471 23.4231 21.0846 21.6497 21.0846C19.8764 21.0846 18.4388 19.647 18.4388 17.8737C18.4388 16.1004 19.8764 14.6627 21.6497 14.6627ZM14.1514 12.5605C14.907 12.7124 15.7045 12.7196 16.5072 12.5572C17.5067 12.355 18.3967 11.9136 19.13 11.3049L20.9693 11.9499C21.0799 11.9887 21.1967 11.9583 21.2743 11.8704C21.3519 11.7825 21.3676 11.6629 21.3153 11.5579L20.4343 9.78708C21.177 8.55404 21.4784 7.05024 21.1704 5.52818C20.7188 3.2966 19.0759 1.61042 17.0382 0.99732C18.5601 2.43987 19.404 4.55999 19.1302 6.79649C18.7835 9.62739 16.7441 11.8454 14.1514 12.5605ZM13.0663 0.0448274C16.336 0.445195 18.6621 3.42041 18.2617 6.69018C17.8613 9.95989 14.8861 12.286 11.6164 11.8856C10.6042 11.7617 9.6826 11.3908 8.90418 10.841L7.1206 11.627C7.0133 11.6743 6.89452 11.653 6.81031 11.5714C6.72609 11.4898 6.70115 11.3718 6.74506 11.263L7.48586 9.42909C6.64952 8.25752 6.2322 6.78167 6.42093 5.2403C6.8213 1.97048 9.79652 -0.35554 13.0663 0.0448274ZM12.3349 5.4007C12.0232 5.4007 11.7704 5.65347 11.7704 5.96524C11.7704 6.27702 12.0231 6.52978 12.3349 6.52978C12.6467 6.52978 12.8995 6.27702 12.8995 5.96524C12.8995 5.65341 12.6467 5.4007 12.3349 5.4007ZM9.76403 5.4007C9.45226 5.4007 9.19949 5.65347 9.19949 5.96524C9.19949 6.27702 9.45226 6.52978 9.76403 6.52978C10.0758 6.52978 10.3286 6.27702 10.3286 5.96524C10.3285 5.65341 10.0758 5.4007 9.76403 5.4007ZM14.9186 5.4007C15.2304 5.4007 15.4831 5.65347 15.4831 5.96524C15.4831 6.27702 15.2304 6.52978 14.9186 6.52978C14.6068 6.52978 14.3541 6.27702 14.3541 5.96524C14.3541 5.65341 14.6068 5.4007 14.9186 5.4007Z" fill="white"/>
  </g>
  <defs>
    <clipPath id="clip0_34504_3250">
      <rect width="28" height="28" fill="white"/>
    </clipPath>
  </defs>
</svg>