<svg width="28" height="28" viewBox="0 0 28 28" fill="none" xmlns="http://www.w3.org/2000/svg">
<path d="M14.8203 18.9219C15.2733 18.9219 15.6406 18.5546 15.6406 18.1016V14.8203C15.6406 14.3673 15.2735 14 14.8203 14H13.1797C12.7267 14 12.3594 14.3672 12.3594 14.8203V18.1016C12.3594 18.5545 12.7267 18.9219 13.1797 18.9219H14.8203Z" fill="white"/>
<path d="M25.5391 4.97656H19.7422C19.7422 4.81135 19.7422 3.99104 19.7422 4.15625C19.7422 2.79923 18.6383 1.69531 17.2812 1.69531C17.1032 1.69531 10.4751 1.69531 10.7188 1.69531C9.36173 1.69531 8.25781 2.79918 8.25781 4.15625C8.25781 4.32146 8.25781 5.14177 8.25781 4.97656H2.46094C1.10392 4.97656 0 6.08043 0 7.4375C0 9.04405 0.196875 10.451 0.587781 11.65C0.978688 12.849 1.56368 13.8402 2.33997 14.6152C3.64629 15.9198 5.31021 16.4609 7.17855 16.4609H10.7188C10.7188 16.2957 10.7188 14.6551 10.7188 14.8203C10.7188 13.4633 11.8226 12.3594 13.1797 12.3594C13.3449 12.3594 14.9855 12.3594 14.8203 12.3594C16.1773 12.3594 17.2812 13.4632 17.2812 14.8203C17.2812 14.9855 17.2812 16.6261 17.2812 16.4609H19.1039C20.7369 16.3931 23.408 16.8896 25.6592 14.6489C26.4359 13.8758 27.021 12.8829 27.4121 11.6782C27.8032 10.4736 28 9.05729 28 7.4375C28 6.08048 26.8961 4.97656 25.5391 4.97656ZM9.89844 4.15625C9.89844 3.70366 10.2661 3.33594 10.7188 3.33594H17.2812C17.7338 3.33594 18.1016 3.7036 18.1016 4.15625C18.1016 4.32146 18.1016 5.14177 18.1016 4.97656H9.89844C9.89844 4.81135 9.89844 3.99104 9.89844 4.15625Z" fill="white"/>
<path d="M19.1264 18.1014H17.2812C17.2812 19.4584 16.1774 20.5623 14.8203 20.5623C14.6551 20.5623 13.0145 20.5623 13.1797 20.5623C11.8227 20.5623 10.7188 19.4584 10.7188 18.1014C10.5313 18.1014 6.98316 18.1014 7.18572 18.1014C4.84597 18.1014 2.79087 17.3834 1.18076 15.7758C0.725922 15.3218 0.337531 14.8105 0 14.2637V25.4842C0 25.9376 0.366898 26.3045 0.820312 26.3045H27.1797C27.6331 26.3045 28 25.9376 28 25.4842V14.2974C27.6579 14.8525 27.268 15.3626 26.8168 15.8119C24.2284 18.3867 21.4718 17.9906 19.1264 18.1014Z" fill="white"/>
</svg>
