<svg width="48" height="28" viewBox="0 0 48 28" fill="none" xmlns="http://www.w3.org/2000/svg">
<path fill-rule="evenodd" clip-rule="evenodd" d="M4.77808 14.5071C4.77808 17.4283 6.43287 19.2913 9.42465 19.2913C10.5644 19.2913 11.452 19.1811 12.2411 18.9496L12.1315 15.9071C11.737 16.1606 11.0794 16.3039 10.389 16.3039C8.9315 16.3039 8.59177 15.1244 8.59177 13.8677V0L4.77808 1.23465V14.5071ZM17.5233 10.1197C17.6986 8.14646 18.7726 6.64724 20.9096 6.64724C23.0466 6.64724 23.9014 8.25669 24.011 10.1197H17.5233ZM26.5863 14.9921C25.1616 15.7969 23.5616 16.4803 21.7096 16.4803C19.3425 16.4803 17.6877 15.1354 17.5233 12.7543H27.6712C27.6712 7.59528 26.137 3.83622 20.6904 3.83622C16.1315 3.83622 13.8849 7.36378 13.8849 11.6299C13.8849 16.4693 16.7014 19.2803 21.5452 19.2803C23.5945 19.2803 25.1945 18.8835 26.5863 18.1008V14.9921ZM29.7534 1.20157H33.5671V18.9496H29.7534V1.20157ZM46.6849 4.33228C45.6329 4.0126 44.5151 3.84724 42.9808 3.84724C38.389 3.84724 35.8904 7.2315 35.8904 11.4976C35.8904 15.9953 38.3123 19.2913 43.1233 19.2913C44.6904 19.2913 45.8301 19.148 46.937 18.8063L46.7616 15.6205C46.1041 15.9071 44.9096 16.3039 43.8246 16.3039C41.1507 16.3039 39.8685 14.2094 39.8685 11.4866C39.8685 8.70866 41.3808 6.8126 43.7479 6.8126C44.9205 6.8126 45.6548 7.04409 46.3452 7.35276L46.6849 4.33228ZM9.3589 6.83465L13.4356 6.82362V4.32126L9.3589 4.34331V6.83465Z" fill="black"/>
<path d="M2.02742 7.5512C3.14107 7.5512 4.04386 6.64308 4.04386 5.52285C4.04386 4.40263 3.14107 3.49451 2.02742 3.49451C0.913777 3.49451 0.0109863 4.40263 0.0109863 5.52285C0.0109863 6.64308 0.913777 7.5512 2.02742 7.5512Z" fill="black"/>
<path fill-rule="evenodd" clip-rule="evenodd" d="M6.44377 26.5889H5.27117V22.9952H4.7561V27.0409H6.44377V26.5889ZM8.77802 22.9952H8.27391L7.40816 27.0409H7.92323L8.05473 26.2582H8.98624L9.12871 27.0409H9.65473L8.77802 22.9952ZM8.15336 25.8283L8.52597 23.7448L8.92049 25.8283H8.15336ZM12.7342 22.9952H12.241L12.3177 26.5338L11.4958 22.9952H10.8164V27.0409H11.3095L11.2328 23.5354L12.0219 27.0409H12.7342V22.9952ZM16.241 24.9464H15.178V25.3873H15.7698V25.7952C15.7698 26.3244 15.715 26.4236 15.6164 26.5228C15.5068 26.633 15.3643 26.6881 15.2109 26.6881C14.7945 26.6881 14.7616 26.3354 14.7616 26.17C14.7506 25.9165 14.7287 25.7181 14.7287 25.3984C14.7287 25.0897 14.7397 24.2519 14.7506 24.0314C14.7725 23.7007 14.7835 23.37 15.2657 23.37C15.5616 23.37 15.6602 23.5133 15.704 23.6787C15.726 23.7889 15.726 23.9873 15.726 24.2519H16.1972C16.1972 23.6015 16.1972 23.4692 16.0657 23.2708C15.9451 23.0834 15.726 22.9511 15.2438 22.9511C14.4876 22.9511 14.3232 23.4141 14.2794 23.7999C14.2575 23.9432 14.2356 24.5716 14.2356 25.1889C14.2356 26.3244 14.2794 26.4787 14.3451 26.6551C14.5095 27.0519 14.8821 27.1291 15.0684 27.1291C15.4739 27.1291 15.6821 26.9196 15.8136 26.7873V27.0629H16.2301V24.9464H16.241ZM19.178 22.9952V25.674C19.178 25.9716 19.178 26.0047 19.1671 26.17C19.1561 26.3574 19.1451 26.6661 18.7177 26.6661C18.2356 26.6661 18.2356 26.3023 18.2356 25.9495V22.9952H17.7314V25.7621C17.7314 26.3684 17.7424 26.4897 17.8191 26.6661C17.9616 26.9747 18.2794 27.107 18.7068 27.107C18.915 27.107 19.3972 27.0629 19.5835 26.633C19.6712 26.4236 19.6821 26.2251 19.6821 25.7291V22.9952H19.178ZM22.1808 22.9952H21.6767L20.8109 27.0409H21.326L21.4575 26.2582H22.389L22.5314 27.0409H23.0575L22.1808 22.9952ZM21.5561 25.8283L21.9287 23.7448L22.3232 25.8283H21.5561ZM26.1808 24.9464H25.1177V25.3873H25.7095V25.7952C25.7095 26.3244 25.6547 26.4236 25.5561 26.5228C25.4465 26.633 25.3041 26.6881 25.1506 26.6881C24.7342 26.6881 24.7013 26.3354 24.7013 26.17C24.6904 25.9165 24.6684 25.7181 24.6684 25.3984C24.6684 25.0897 24.6794 24.2519 24.6904 24.0314C24.7123 23.7007 24.7232 23.37 25.2054 23.37C25.5013 23.37 25.5999 23.5133 25.6438 23.6787C25.6657 23.7889 25.6657 23.9873 25.6657 24.2519H26.1369C26.1369 23.6015 26.1369 23.4692 26.0054 23.2708C25.8849 23.0834 25.6657 22.9511 25.1835 22.9511C24.4273 22.9511 24.263 23.4141 24.2191 23.7999C24.1972 23.9432 24.1753 24.5716 24.1753 25.1889C24.1753 26.3244 24.2191 26.4787 24.2849 26.6551C24.4493 27.0519 24.8219 27.1291 25.0082 27.1291C25.4136 27.1291 25.6219 26.9196 25.7534 26.7873V27.0629H26.1698V24.9464H26.1808ZM29.4904 26.5889H28.1862V25.1118H29.2931V24.6488H28.1862V23.4472H29.4465V22.9952H27.6821V27.0409H29.4904V26.5889ZM33.7534 23.4472H34.5205V22.9952H32.4931V23.4472H33.2602V27.0409H33.7534V23.4472ZM37.4136 26.5889H36.1095V25.1118H37.2164V24.6488H36.1095V23.4472H37.3698V22.9952H35.6054V27.0409H37.4136V26.5889ZM38.5862 26.0929C38.5862 26.4015 38.641 26.6992 38.9041 26.8976C38.9808 26.9637 39.189 27.096 39.5725 27.096C39.8794 27.096 40.5479 26.9858 40.5479 26.1259C40.5479 25.6629 40.3945 25.4535 40.0657 25.1007L39.5616 24.5716C39.2767 24.2629 39.1671 24.1527 39.1671 23.844C39.1671 23.7338 39.1671 23.359 39.5835 23.359C39.9342 23.359 39.989 23.6125 39.9999 23.6897C40.0109 23.7669 40.0109 23.7999 40.0219 24.1858H40.4602C40.4602 23.5905 40.4602 23.4472 40.3506 23.2598C40.1643 22.9621 39.8246 22.9291 39.6164 22.9291C38.6849 22.9291 38.6849 23.6566 38.6849 23.8771C38.6849 24.2409 38.7616 24.4944 39.1451 24.8913L39.6931 25.4535C39.9232 25.685 40.0657 25.8503 40.0657 26.17C40.0657 26.611 39.715 26.6771 39.5616 26.6771C39.1123 26.6771 39.0794 26.3023 39.0794 26.1921C39.0684 26.1149 39.0684 26.0708 39.0684 25.6519H38.5862V26.0929ZM42.7506 23.4472H43.5177V22.9952H41.4904V23.4472H42.2575V27.0409H42.7506V23.4472ZM44.4602 26.0929C44.4602 26.4015 44.515 26.6992 44.778 26.8976C44.8547 26.9637 45.063 27.096 45.4465 27.096C45.7534 27.096 46.4219 26.9858 46.4219 26.1259C46.4219 25.6629 46.2684 25.4535 45.9397 25.1007L45.4356 24.5716C45.1506 24.2629 45.041 24.1527 45.041 23.844C45.041 23.7338 45.041 23.359 45.4575 23.359C45.8082 23.359 45.863 23.6125 45.8739 23.6897C45.8849 23.7669 45.8849 23.7999 45.8958 24.1858H46.3342C46.3342 23.5905 46.3342 23.4472 46.2246 23.2598C46.0383 22.9621 45.6986 22.9291 45.4904 22.9291C44.5588 22.9291 44.5588 23.6566 44.5588 23.8771C44.5588 24.2409 44.6356 24.4944 45.0191 24.8913L45.5671 25.4535C45.7972 25.685 45.9397 25.8503 45.9397 26.17C45.9397 26.611 45.589 26.6771 45.4356 26.6771C44.9862 26.6771 44.9534 26.3023 44.9534 26.1921C44.9424 26.1149 44.9424 26.0708 44.9424 25.6519H44.4602V26.0929Z" fill="#878A8D"/>
</svg>
