<svg xmlns="http://www.w3.org/2000/svg" width="16" height="16" viewBox="0 0 16 16" fill="none">
  <path d="M7.20094 8.39991V9.55031C7.19857 9.61008 7.20841 9.66972 7.22987 9.72557C7.25133 9.78141 7.28395 9.8323 7.32574 9.87511C7.36855 9.9169 7.41944 9.94952 7.47528 9.97098C7.53113 9.99243 7.59076 10.0023 7.65054 9.99991H8.35054C8.49454 9.99991 8.60654 9.95831 8.68414 9.87511C8.76398 9.78624 8.8059 9.66967 8.80094 9.55031V8.39991H9.95054C10.0945 8.39991 10.2065 8.35831 10.2841 8.27511C10.364 8.18624 10.4059 8.06967 10.4009 7.95031V7.25031C10.4009 7.10551 10.3617 6.99431 10.2841 6.91671C10.2065 6.83911 10.0953 6.79991 9.95054 6.79991H8.80094V5.65031C8.80094 5.50551 8.76174 5.39431 8.68414 5.31671C8.60654 5.23911 8.49534 5.19991 8.35054 5.19991H7.65054C7.53117 5.19486 7.41457 5.23679 7.32574 5.31671C7.24254 5.39431 7.20094 5.50551 7.20094 5.65031V6.79991H6.05054C5.93117 6.79486 5.81457 6.83679 5.72574 6.91671C5.64254 6.99431 5.60094 7.10551 5.60094 7.25031V7.95031C5.59857 8.01008 5.60841 8.06972 5.62987 8.12557C5.65133 8.18141 5.68395 8.2323 5.72574 8.27511C5.76855 8.3169 5.81944 8.34952 5.87528 8.37098C5.93113 8.39243 5.99076 8.40228 6.05054 8.39991H7.20094ZM8.00094 14.3335C7.93374 14.3335 7.86734 14.3303 7.80094 14.3255C7.73783 14.3207 7.6758 14.3064 7.61694 14.2831C6.16174 13.8055 4.99534 12.9223 4.11774 11.6335C3.23934 10.3439 2.80094 8.93911 2.80094 7.41591V4.41591C2.79691 4.17322 2.86854 3.9353 3.00588 3.73517C3.14321 3.53504 3.33945 3.38264 3.56734 3.29911L7.56734 1.76551C7.70554 1.71147 7.85256 1.68353 8.00094 1.68311C8.14494 1.68311 8.28894 1.71111 8.43374 1.76631L12.4337 3.29991C12.6617 3.38341 12.8581 3.53578 12.9955 3.7359C13.133 3.93601 13.2048 4.17395 13.2009 4.41671V7.41671C13.2009 8.93911 12.7617 10.3447 11.8841 11.6327C11.0065 12.9223 9.83934 13.8055 8.38414 14.2831C8.32524 14.3061 8.26321 14.3201 8.20014 14.3247C8.13374 14.3303 8.06734 14.3327 8.00014 14.3327L8.00094 14.3335ZM8.00094 13.1495C9.15614 12.7943 10.1121 12.0775 10.8673 10.9999C11.6129 9.95428 12.0096 8.70009 12.0009 7.41591V4.41591L8.00094 2.88311L4.00094 4.41671V7.41671C4.00094 8.72791 4.37854 9.92231 5.13374 11.0007C5.88974 12.0775 6.84574 12.7935 8.00094 13.1495Z" fill="#038DCE"/>
</svg>